#N canvas 564 68 542 392 10;
#X obj 24 339 sendOSC;
#X obj 20 32 loadbang;
#X obj 40 149 nbx 5 14 40 1e+37 0 0 empty empty empty 0 -6 0 10 -262144
-1 -1 131 256;
#X obj 100 149 nbx 5 14 0 255 0 0 empty empty empty 0 -6 0 10 -262144
-1 -1 134 256;
#X text 20 10 loadbang fires when the patch is loaded;
#X msg 20 56 connect localhost 44000;
#X msg 55 278 send /output \$1 \$2 \$3;
#X obj 160 149 nbx 5 14 0 255 0 0 empty empty empty 0 -6 0 10 -262144
-1 -1 123 256;
#X text 47 133 size;
#X text 106 133 hue;
#X text 158 132 rotation;
#X text 31 79 broadcasts 3 numbers on port 44000 we use these numbers
in NodeBox to control size/hue/rotation of a shape;
#X obj 55 254 pack f f f;
#X connect 1 0 5 0;
#X connect 1 0 2 0;
#X connect 1 0 3 0;
#X connect 1 0 7 0;
#X connect 2 0 12 0;
#X connect 3 0 12 1;
#X connect 5 0 0 0;
#X connect 6 0 0 0;
#X connect 7 0 12 2;
#X connect 12 0 6 0;
